<svg width="88" height="88" viewBox="0 0 88 88" fill="none" xmlns="http://www.w3.org/2000/svg">
<rect width="88" height="88" rx="44" fill="#0B1B2B"/>
<path d="M40.3089 42.8168L40.3088 42.8167L25.6447 28.2432C25.6447 28.2431 25.6446 28.2431 25.6446 28.243C25.6445 28.243 25.6445 28.2429 25.6444 28.2429C24.982 27.5856 23.9065 27.5857 23.2444 28.2431L40.3089 42.8168ZM40.3089 42.8168C40.9686 43.4722 40.9686 44.5277 40.3089 45.183L40.3089 45.1831M40.3089 42.8168L40.3089 45.1831M40.3089 45.1831L25.6445 59.7546C24.9821 60.4126 23.9068 60.4126 23.2446 59.7546C22.5851 59.0992 22.5851 58.0436 23.2446 57.3882L23.2446 57.3882M40.3089 45.1831L23.2446 57.3882M23.2446 57.3882L36.1794 44.5318L36.7146 43.9999M23.2446 57.3882L36.7146 43.9999M36.7146 43.9999L36.1794 43.4679M36.7146 43.9999L36.1794 43.4679M36.1794 43.4679L23.2446 30.6139C23.2446 30.6139 23.2446 30.6139 23.2446 30.6139C22.5852 29.9586 22.5851 28.8986 23.2443 28.2432L36.1794 43.4679ZM63.5556 56.8928C64.498 56.8928 65.25 57.6469 65.25 58.5714C65.25 59.4959 64.498 60.25 63.5556 60.25H41.5556C40.6131 60.25 39.8611 59.4959 39.8611 58.5714C39.8611 57.6469 40.6131 56.8928 41.5556 56.8928H63.5556Z" stroke="#3294F8" stroke-width="1.5"/>
</svg>
